<?xml version="1.0" encoding="UTF-8"?><svg id="Capa_2" xmlns="http://www.w3.org/2000/svg" viewBox="0 0 596 142"><defs><style>.cls-1{letter-spacing:0em;}.cls-2{letter-spacing:0em;}.cls-3{fill:#683c11;}.cls-4{font-size:50.41px;}.cls-4,.cls-5{fill:#fff;font-family:Recoleta-Black, Recoleta;font-weight:800;}.cls-6{fill:#edf3da;}.cls-5{font-size:50px;}.cls-7{fill:#1d1d1b;stroke:#1d1d1b;stroke-miterlimit:10;}.cls-8{fill:#0e3b20;}</style></defs><g id="Capa_3"><rect class="cls-7" x=".5" y=".5" width="595" height="141"/></g><g id="Capa_1-2"><path class="cls-6" d="m280.83,84.34c-.46-2.56-1.27-4.99-2.39-7.27-.17-.56-.43-1.03-.75-1.42-.16-.29-.34-.57-.51-.85-.41-1.2-.96-2.32-1.72-3.44-.61-.9-1.34-1.53-2.12-1.91-.65-.78-1.38-1.43-2.25-2-.23-.15-.65-.43-1.09-.7-.15-.23-.3-.47-.47-.7-.78-1.1-1.79-1.75-2.85-2.04-1.52-2.67-2.42-5.64-4.82-7.9-2.85-2.68-5.82-4.69-8.23-7.86-1.13-1.49-2.21-3-3.33-4.47-.29-.62-.69-1.12-1.17-1.5-.35-.44-.71-.87-1.08-1.29-.59-3.3-4.44-4.94-7.43-3.36-3.83,2.02-5.3,5.94-6.78,9.77-2.7,4.9-4.98,10.36-5.11,15.69-.52.68-.95,1.47-1.24,2.4-1.81,5.76,2.9,12.21,5.38,16.99,3.3,6.36,6.29,13.03,9.95,19.18,3.37,5.67,8.73,4.79,14.73,4.71,5.18-.07,11,.5,14.05-4.54.26-.43.49-.86.7-1.29.94-.37,1.99-.67,2.55-.96,1.58-.81,3.04-1.79,4.17-3.17,2.78-3.41,2.51-7.97,1.78-12.06Z"/><text class="cls-4" transform="translate(150.8 96.35)"><tspan class="cls-1" x="0" y="0">E</tspan><tspan class="cls-2" x="31.31" y="0">C</tspan></text><path class="cls-8" d="m255.8,114c-9.47,0-17.72-3.7-24.75-11.1-9.4-9.89-10.13-22.53-10.55-28.85-.88-13.35,3.25-23.26,4.5-26.05,3.3-7.37,5.57-10.85,8-13,1.95-1.73,6.81-6.02,12-5,1.93.38,2.95,1.31,9,8,8.04,8.91,8.67,10.01,12,13,.54.48,2.7,2.33,7,6,8.37,7.15,8.16,6.93,8.39,7.15,6.55,6.29,8.76,16.59,7.61,24.85-.32,2.32-1.26,8.47-6,14-3.01,3.51-6.2,5.21-8.8,6.59-7.78,4.14-15.05,4.41-18.4,4.41Zm6-9.32c2.24-.29,3.86-.97,4.33-1.18,4.55-2.01,6.81-5.75,7.87-7.5,2.94-4.86,5.63-14.01,2-22-3.69-8.13-10.15-6.73-19-19-3.2-4.43-5-7-5-7-6.37-9.08-7.16-10.85-9-11-4.17-.34-8.4,8.04-10,13-2.53,7.87-1.61,17.04-1.1,22.1.03.3.06.55.1.9.59,5.14,1.47,12.76,7,20,1.65,2.16,4.55,5.39,9,8,2.64,1.55,7.64,4.48,13.8,3.68Z"/><text class="cls-5" transform="translate(300.4 96.4)"><tspan x="0" y="0">REUS</tspan></text><circle class="cls-3" cx="255" cy="80" r="13"/><polyline class="cls-3" points="230 18 238 33 240 32 236 14"/></g></svg>